<svg xmlns="http://www.w3.org/2000/svg" version="1.1" xmlns:xlink="http://www.w3.org/1999/xlink" xmlns:svgjs="http://svgjs.dev/svgjs" width="2000" height="2627" viewBox="0 0 2000 2627"><g transform="matrix(1,0,0,1,2.0450062899132035,1.0635627530364218)"><svg viewBox="0 0 188 247" data-background-color="#1a1423" preserveAspectRatio="xMidYMid meet" height="2627" width="2000" xmlns="http://www.w3.org/2000/svg" xmlns:xlink="http://www.w3.org/1999/xlink"><g id="tight-bounds" transform="matrix(1,0,0,1,-0.19223031357421405,-0.09999999999999432)"><svg viewBox="0 0 188.38445229681977 247.2" height="247.2" width="188.38445229681977"><g><svg viewBox="0 0 188.38445229681977 247.2" height="247.2" width="188.38445229681977"><g><svg viewBox="0 0 188.38445229681977 247.2" height="247.2" width="188.38445229681977"><g><svg viewBox="0 0 188.38445229681977 247.2" height="247.2" width="188.38445229681977"><g><svg viewBox="0 0 188.38445229681977 247.2" height="247.2" width="188.38445229681977"><g id="textblocktransform"><svg viewBox="0 0 188.38445229681977 247.2" height="247.2" width="188.38445229681977" id="textblock"><g><svg viewBox="0 0 188.38445229681977 247.2" height="247.2" width="188.38445229681977"><g transform="matrix(1,0,0,1,0,0)"><svg width="188.38445229681977" viewBox="1.4500000476837158 -36.5 32.349998474121094 42.45000076293945" height="247.2" data-palette-color="#f8fafc"><path d="M25.05 5.95L25.05 5.95 3.75 5.95Q2.55 5.95 2 5.4 1.45 4.85 1.45 3.65L1.45 3.65 1.45-2.3Q1.45-2.95 1.63-3.4 1.8-3.85 2.15-4.15L2.15-4.15 8.2-9.25 8.2-20.4 3.75-20.4Q2.55-20.4 2-20.95 1.45-21.5 1.45-22.7L1.45-22.7 1.45-28.75Q1.45-29.4 1.63-29.85 1.8-30.3 2.15-30.6L2.15-30.6 8.6-36.05Q8.85-36.25 9.28-36.38 9.7-36.5 10.2-36.5L10.2-36.5 31.5-36.5Q32.7-36.5 33.25-35.95 33.8-35.4 33.8-34.2L33.8-34.2 33.8-28.15Q33.8-27.5 33.63-27.05 33.45-26.6 33.1-26.3L33.1-26.3 27.15-21.3 27.15-10.05 31.5-10.05Q32.7-10.05 33.25-9.5 33.8-8.95 33.8-7.75L33.8-7.75 33.8-1.8Q33.8-1.15 33.63-0.7 33.45-0.25 33.1 0.05L33.1 0.05 26.6 5.45Q26.4 5.65 25.98 5.8 25.55 5.95 25.05 5.95ZM10.2 0L10.2 0 31.5 0Q32.45 0 32.88-0.43 33.3-0.85 33.3-1.8L33.3-1.8 33.3-7.75Q33.3-8.7 32.88-9.13 32.45-9.55 31.5-9.55L31.5-9.55 26.65-9.55 26.65-26.35 31.5-26.35Q32.45-26.35 32.88-26.78 33.3-27.2 33.3-28.15L33.3-28.15 33.3-34.2Q33.3-35.15 32.88-35.58 32.45-36 31.5-36L31.5-36 10.2-36Q9.25-36 8.83-35.58 8.4-35.15 8.4-34.2L8.4-34.2 8.4-28.15Q8.4-27.2 8.83-26.78 9.25-26.35 10.2-26.35L10.2-26.35 15.15-26.35 15.15-9.55 10.2-9.55Q9.25-9.55 8.83-9.13 8.4-8.7 8.4-7.75L8.4-7.75 8.4-1.8Q8.4-0.85 8.83-0.43 9.25 0 10.2 0ZM28.8-5L28.8-4.5 12.9-4.5 12.9-5 20.65-5 20.65-31 12.9-31 12.9-31.5 28.8-31.5 28.8-31 21.15-31 21.15-5 28.8-5Z" opacity="1" transform="matrix(1,0,0,1,0,0)" fill="#000000" class="wordmark-text-0" data-fill-palette-color="primary" id="text-0"></path></svg></g></svg></g></svg></g></svg></g></svg></g></svg></g></svg></g><defs></defs></svg><rect width="188.38445229681977" height="247.2" fill="none" stroke="none" visibility="hidden"></rect></g></svg></g></svg>